<svg x="0px" y="0px" width="16px" height="16px" viewBox="0 0 16 16" enable-background="new 0 0 16 16">
<g id="Black">
	<g id="LinkedIn_2_">
		<rect x="0.4" y="5.1" fill="#777777" width="3.1" height="9.9"/>
		<path fill="#777777" d="M12,5c-1.8,0-2.9,1-3.1,1.6V5.1H5.4c0,0.8,0,9.9,0,9.9h3.5V9.6c0-0.3,0-0.6,0.1-0.8    c0.2-0.6,0.8-1.2,1.7-1.2c1.2,0,1.8,0.9,1.8,2.3V15H16V9.5C16,6.4,14.3,5,12,5z"/>
		<path fill="#777777" d="M1.9,0.4C0.8,0.4,0,1.2,0,2.2c0,1,0.7,1.7,1.9,1.7h0c1.2,0,1.9-0.8,1.9-1.7C3.8,1.2,3.1,0.4,1.9,0.4z"/>
	</g>
</g>
</svg>
